<?xml version="1.0" standalone="no"?>
<!DOCTYPE svg PUBLIC "-//W3C//DTD SVG 20010904//EN"
 "http://www.w3.org/TR/2001/REC-SVG-20010904/DTD/svg10.dtd">
<svg version="1.0" xmlns="http://www.w3.org/2000/svg"
 width="5120.000000pt" height="5120.000000pt" viewBox="0 0 5120.000000 5120.000000"
 preserveAspectRatio="xMidYMid meet">
<metadata>
Created by potrace 1.16, written by Peter Selinger 2001-2019
</metadata>
<g transform="translate(0.000000,5120.000000) scale(0.100000,-0.100000)"
fill="#000000" stroke="none">
<path d="M6850 41254 c-203 -55 -351 -197 -428 -413 -16 -43 -17 -994 -20
-13241 -2 -12037 -1 -13201 13 -13268 49 -222 228 -405 447 -457 55 -13 961
-15 7351 -15 l7287 0 0 -1355 c0 -745 1 -1358 3 -1362 1 -5 -1188 -10 -2643
-13 -2450 -5 -2649 -7 -2700 -22 -95 -30 -179 -78 -247 -141 -132 -123 -194
-264 -194 -437 0 -53 7 -121 15 -152 56 -208 226 -378 436 -434 61 -16 591
-17 9430 -17 8839 0 9369 1 9430 17 210 56 380 226 436 434 24 92 20 232 -10
328 -60 190 -214 339 -416 402 -51 15 -229 17 -2402 19 l-2348 3 0 1065 0
1065 -295 0 -295 0 0 300 0 300 7288 0 c6386 0 7295 2 7350 15 216 51 398 238
447 457 14 67 15 1231 13 13268 -3 12416 -4 13198 -20 13243 -69 191 -203 332
-381 399 l-62 23 -18715 2 c-16480 1 -18722 0 -18770 -13z m36750 -13689 l0
-12505 -18000 0 -18000 0 0 12505 0 12505 18000 0 18000 0 0 -12505z m-15102
-14007 l2 -298 -1995 0 -1995 0 0 -1065 0 -1065 -905 0 -905 0 0 1358 c0 747
3 1362 7 1365 3 4 1307 6 2897 5 l2891 -3 3 -297z"/>
<path d="M22765 33678 c-257 -147 -222 -127 -2455 -1385 -195 -110 -605 -341
-910 -513 -305 -172 -800 -451 -1100 -620 -1561 -879 -1938 -1091 -2295 -1292
-214 -121 -407 -231 -427 -244 l-38 -24 0 -838 c0 -460 3 -846 6 -857 5 -20
143 -99 2679 -1546 3795 -2166 4749 -2709 4757 -2709 4 0 8 411 8 913 l0 912
-1293 714 c-1246 689 -4299 2377 -4500 2489 -63 35 -95 58 -89 64 6 6 56 36
113 67 118 65 2940 1613 4069 2231 410 225 959 526 1220 669 l475 260 3 916
c1 503 -1 915 -5 914 -5 -1 -102 -55 -218 -121z"/>
<path d="M29072 32883 l3 -918 380 -208 c427 -234 1126 -617 2455 -1347 498
-273 1380 -757 1960 -1075 580 -318 1061 -583 1068 -590 11 -10 -57 -51 -340
-207 -194 -107 -733 -406 -1198 -663 -1959 -1085 -3736 -2068 -4080 -2258
l-245 -135 -3 -917 c-2 -846 -1 -917 14 -911 15 6 607 343 2549 1453 755 431
1953 1115 3895 2223 l975 556 3 860 2 861 -692 390 c-381 215 -958 540 -1283
723 -324 183 -1089 614 -1700 958 -610 344 -1297 731 -1525 860 -228 129 -696
393 -1040 587 -344 194 -744 420 -890 502 -146 82 -275 155 -288 162 l-22 12
2 -918z"/>
</g>
</svg>
